<svg width="24" height="24" viewBox="0 0 24 24" fill="none" xmlns="http://www.w3.org/2000/svg">
<path fill-rule="evenodd" clip-rule="evenodd" d="M11.9982 20.557C16.7241 20.557 20.5551 16.726 20.5551 12.0002C20.5551 7.27439 16.7241 3.44336 11.9982 3.44336C7.27243 3.44336 3.44141 7.27439 3.44141 12.0002C3.44141 16.726 7.27243 20.557 11.9982 20.557ZM16.473 9.19C16.7093 8.87495 16.6454 8.428 16.3304 8.1917C16.0153 7.9554 15.5684 8.01923 15.3321 8.33428L10.9676 14.1531L8.59439 11.781C8.31585 11.5026 7.86436 11.5027 7.58595 11.7812C7.30755 12.0597 7.30765 12.5112 7.58619 12.7896L10.5408 15.7428C10.687 15.889 10.8893 15.9645 11.0955 15.9498C11.3017 15.9351 11.4913 15.8317 11.6153 15.6664L16.473 9.19Z" fill="white"/>
</svg>
